<?xml version="1.0" encoding="UTF-8" standalone="no"?>
<svg
   xmlns:dc="http://purl.org/dc/elements/1.1/"
   xmlns:cc="http://creativecommons.org/ns#"
   xmlns:rdf="http://www.w3.org/1999/02/22-rdf-syntax-ns#"
   xmlns:svg="http://www.w3.org/2000/svg"
   xmlns="http://www.w3.org/2000/svg"
   xmlns:xlink="http://www.w3.org/1999/xlink"
   xmlns:sodipodi="http://sodipodi.sourceforge.net/DTD/sodipodi-0.dtd"
   xmlns:inkscape="http://www.inkscape.org/namespaces/inkscape"
   data-name="Calque 1"
   viewBox="0 0 1192.325 416.27191"
   version="1.1"
   id="svg43"
   sodipodi:docname="logo-head-teester-by-skeepers.svg"
   width="1192.325"
   height="416.27191"
   inkscape:version="1.0.1 (3bc2e813f5, 2020-09-07)">
  <metadata
     id="metadata47">
    <rdf:RDF>
      <cc:Work
         rdf:about="">
        <dc:format>image/svg+xml</dc:format>
        <dc:type
           rdf:resource="http://purl.org/dc/dcmitype/StillImage" />
        <dc:title></dc:title>
      </cc:Work>
    </rdf:RDF>
  </metadata>
  <sodipodi:namedview
     pagecolor="#ffffff"
     bordercolor="#666666"
     borderopacity="1"
     objecttolerance="10"
     gridtolerance="10"
     guidetolerance="10"
     inkscape:pageopacity="0"
     inkscape:pageshadow="2"
     inkscape:window-width="1920"
     inkscape:window-height="1017"
     id="namedview45"
     showgrid="false"
     fit-margin-top="0"
     fit-margin-left="0"
     fit-margin-right="0"
     fit-margin-bottom="0"
     inkscape:zoom="0.81077719"
     inkscape:cx="576.56392"
     inkscape:cy="216.25"
     inkscape:window-x="-8"
     inkscape:window-y="208"
     inkscape:window-maximized="1"
     inkscape:current-layer="svg43" />
  <defs
     id="defs17">
    <clipPath
       id="b">
      <path
         d="M 1060,25.19 A 143.93,143.93 0 0 0 926.7,221.5 c 7.63,25.54 19.65,59.65 -23.65,90.7 1.45,-0.73 55.38,-0.48 100.59,-0.23 26.19,0.14 49.44,0.29 57.88,0.25 79.5,-0.43 143.61,-64.39 143.18,-143.87 A 144,144 0 0 0 1060.72,25.16 h -0.78"
         class="cls-1"
         id="path2" />
    </clipPath>
    <clipPath
       id="c">
      <path
         d="M -1550.51,-1633.16 H 2332.43 V 7003.1 h -3882.94 z"
         class="cls-1"
         id="path5" />
    </clipPath>
    <clipPath
       id="d">
      <path
         d="m 1040,142.61 a 9.32,9.32 0 0 0 -5.1,8.33 v 63 a 9.36,9.36 0 0 0 14.83,7.63 l 44,-31.52 a 9.39,9.39 0 0 0 0,-15.25 l -44,-31.52 a 9.5,9.5 0 0 0 -5.49,-1.72 9.23,9.23 0 0 0 -4.24,1"
         class="cls-1"
         id="path8" />
    </clipPath>
    <linearGradient
       id="a"
       x1="-2477.1201"
       x2="-2470.6001"
       y1="7240.48"
       y2="7240.48"
       gradientTransform="matrix(44.94,-38.27,-38.27,-44.94,389287.47,230922.67)"
       gradientUnits="userSpaceOnUse">
      <stop
         offset="0"
         stop-color="#be176c"
         id="stop11" />
      <stop
         offset="1"
         stop-color="#1c3e8d"
         id="stop13" />
    </linearGradient>
    <linearGradient
       xlink:href="#a"
       id="e"
       x1="-2163.46"
       x2="-2156.9399"
       y1="7378.5498"
       y2="7378.5498"
       gradientTransform="matrix(14.86,0,0,-14.86,33157.9,109795.04)" />
  </defs>
  <path
     d="m 886.69283,251.39 a 24.26,24.26 0 0 1 -6.35,9.31 c -8.13,7.92 -15,8.81 -23.24,7.71 -11.49,-1.56 -14.86,-13.44 -14.16,-22.4 0.78,-10.06 14.64,-29.5 24.23,-41.06 11.07,-13.33 15.4,-25.76 12.5,-35.92 -2.55,-9 -10.84,-14.33 -22.15,-14.33 a 38.18,38.18 0 0 0 -17.08,4.07 c -3.77,2 -8.51,2.89 -15,2.89 -1.84,0 -3.86,-0.08 -6,-0.24 -12.16,-0.87 -19.7,-3.39 -20.47,-4.88 a 44.84,44.84 0 0 1 -2.84,-7.56 c -1.12,-3.68 -2.19,-7.16 -4.71,-9.59 a 16.31,16.31 0 0 0 -11.43,-4.14 23,23 0 0 0 -21.37,15.06 c -5.74,15.51 1.1,31.3 18.81,43.49 -3.23,27.06 -20,45.68 -33.23,56 -4.81,3.34 -18.52,9.84 -32.4,9.84 -12.53,0 -22.46,-5.14 -29.49,-15.28 -8.28,-11.94 -11.09,-34.61 1.32,-58.32 5.85,-11.16 13.63,-18.37 19.85,-18.37 a 9.71,9.71 0 0 1 1.21,0.08 7.93,7.93 0 0 1 5.89,4.51 c 3.9,7.28 2.46,21.23 -3.48,33.92 -3.8,8.1 -9.41,12.2 -16.68,12.2 a 22.52,22.52 0 0 1 -9.3,-2.12 2.88,2.88 0 0 0 -1.29,-0.31 2.81,2.81 0 0 0 -1.09,0.23 2.77,2.77 0 0 0 -1.58,1.76 18.15,18.15 0 0 0 1.92,13.39 c 3.58,6.35 10.73,10.92 21.26,13.57 a 37.94,37.94 0 0 0 9.23,1.14 c 12.07,0 24.47,-5.66 34,-15.53 9,-9.25 13.94,-20.69 13.61,-31.38 -0.57,-18.2 -7.39,-32.84 -19.74,-42.34 -13.25,-10.17 -28.69,-11.69 -36.72,-11.69 h -0.38 c -29.53,0.16 -75.3,30.09 -77,74.8 -0.48,12.73 2.11,24.18 7.43,33.89 -2,2.15 -4.48,3.8 -6.93,3.8 -5.78,0 -15.48,-2.66 -15.6,-20.5 -0.13,-21.56 8.17,-64.87 14.52,-97.56 l 8.91,-0.71 c 28.17,-2.23 57.29,-4.53 71.4,-8.2 a 49.56,49.56 0 0 0 12.03,-4.78 c 12.9,-7.31 21.63,-20.06 23.31,-34.08 1.75,-14.5 -4,-29 -16.29,-40.9 a 2.78,2.78 0 0 0 -2.6,-0.71 2.63,2.63 0 0 0 -0.69,0.28 2.72,2.72 0 0 0 -1.27,1.55 c -0.06,0.19 -6.29,18.84 -26.88,30.49 -9.64,5.46 -21,8.6 -33.65,9.33 -8,0.46 -17.35,1.47 -27.15,2.82 0.22,-14.62 -3.3,-23.69 -11.65,-31 -6.09,-5.31 -12.46,-7.89 -19.47,-7.89 -6,0 -12.38,1.86 -19.61,5.71 a 2.79,2.79 0 0 0 -1.39,3.19 c 3,11 4.41,24.69 5.05,38.16 -9.55,2 -17.48,4 -22.24,5.56 a 74.89,74.89 0 0 0 -13.64,5.85 c -9.18,5.2 -14.76,11.85 -16.59,19.76 -2.08,9 0.79,19.41 8.53,31 a 2.82,2.82 0 0 0 2.33,1.25 2.81,2.81 0 0 0 2.31,-1.25 c 4.15,-6.45 7.76,-10.09 12.87,-13 4.38,-2.49 10.11,-4.58 19.11,-7 1.87,-0.49 4.35,-1 7.28,-1.42 -0.34,8.17 -0.76,13.46 -0.78,13.65 0,0 -5.54,46.09 -7.79,63.41 -2.87,22 -15.54,37.48 -22.21,37.48 -4.53,0 -7.7,-3.53 -10.14,-7.75 l 10.47,-7.49 a 36.43,36.43 0 0 0 0,-59.22 l -48.7,-34.9 a 45.8,45.8 0 0 0 -5.5,-4.09 c -12.46,-7.79 -27.11,-18.64 -33.36,-23.1 -0.84,-0.6 -1.68,-1.15 -2.49,-1.68 -0.63,-1.39 -1.16,-2.75 -1.84,-4.06 -2.3,-4.44 -5.68,-9.78 -13.38,-10.62 -7.7,-0.84 -19.24,1.39 -20.84,14.68 -2.06,17.22 8.31,19.16 13.17,30.25 1.29,5.72 2,13.92 2.41,27.9 0,1.15 0.09,2.1 0.17,2.94 v 16.9 c -3.51,31.43 -14.75,42 -23.17,49.27 -0.9,0.71 -1.82,1.41 -2.72,2.07 -4.56,3.28 -18.54,10.05 -32.72,10.05 -12.51,0 -22.43,-5.15 -29.48,-15.3 -8.28,-11.93 -11.08,-34.59 1.33,-58.33 5.83,-11.15 13.63,-18.36 19.85,-18.36 a 8.12,8.12 0 0 1 1.21,0.1 7.94,7.94 0 0 1 5.89,4.49 c 3.89,7.28 2.45,21.24 -3.5,33.93 -3.79,8.09 -9.4,12.19 -16.66,12.19 a 22.84,22.84 0 0 1 -9.3,-2.11 2.8,2.8 0 0 0 -1.3,-0.31 3,3 0 0 0 -1.09,0.21 2.82,2.82 0 0 0 -1.59,1.77 18.15,18.15 0 0 0 1.93,13.4 c 3.59,6.35 10.73,10.92 21.26,13.57 a 38,38 0 0 0 9.22,1.13 c 12.08,0 24.49,-5.65 34.06,-15.52 9,-9.26 13.94,-20.7 13.61,-31.38 -0.57,-18.2 -7.4,-32.84 -19.75,-42.34 -13.25,-10.18 -28.68,-11.7 -36.71,-11.7 h -0.38 c -29.54,0.16 -75.3,30.09 -77,74.81 a 73.93,73.93 0 0 0 0.77,13.85 c -1.51,3 -8.23,9.69 -21.23,16.56 -4.71,2.49 -19,10.07 -34,10.07 -12.09,0 -21.69,-5.07 -28.51,-15.08 -11.36,-16.79 -7.16,-42.22 1.64,-58.77 5.86,-11.09 13.37,-18 19.6,-18 a 9.57,9.57 0 0 1 1.21,0.09 6.42,6.42 0 0 1 4.91,3.57 c 3.52,6.58 1.4,20.91 -5.15,34.87 -3.78,8.09 -8.94,12.19 -15.28,12.19 a 17.18,17.18 0 0 1 -7.9,-2 2.82,2.82 0 0 0 -2.45,-0.2 2.79,2.79 0 0 0 -1.67,1.78 18.34,18.34 0 0 0 1.87,13.43 c 3.59,6.33 10.74,10.9 21.26,13.55 a 37.66,37.66 0 0 0 9.24,1.14 c 12.07,0 24.48,-5.66 34.05,-15.52 9,-9.27 13.93,-20.7 13.6,-31.38 -0.56,-18.21 -7.38,-32.85 -19.75,-42.35 -13.24,-10.18 -28.67,-11.69 -36.71,-11.69 h -0.38 c -29.54,0.17 -75.3,30.08 -77,74.81 -0.68,18.29 4.83,34 15.95,45.59 13.19,13.68 33.88,21.22 58.28,21.22 h 1.83 c 35,-0.54 63.9,-22.86 74.28,-32 a 53.92,53.92 0 0 0 7.52,9.86 c 13.17,13.69 33.88,21.23 58.28,21.23 h 1.83 c 35.48,-0.55 61.93,-24.95 70.95,-34.53 a 36.42,36.42 0 0 0 57.63,28.87 l 16.2,-11.61 c 5,7.42 13.8,16.7 26.85,16.7 22.22,0 38.23,-28.4 38.23,-28.4 8.75,22.76 22.92,28.92 42.08,28.92 h 0.3 c 14,0 23,-5.48 27.8,-11.38 12.47,7.71 28.5,11.86 46.58,11.86 h 1.85 c 32.37,-0.51 57.23,-20.88 68.19,-31.72 14.22,-13.33 21.84,-30.59 28,-44.56 1.83,-4.19 3.59,-8.18 5.34,-11.63 5,-0.27 15.11,-1.37 21.29,-2.06 -3.72,7.69 -10.93,23.47 -14.24,36.9 -4.61,18.73 -2.67,31.35 10.85,43.35 6.84,6.07 17,9.73 27.6,9.73 9.4,0 18.25,-1.49 27.15,-6.82 11,-6.57 15.19,-15.32 17,-23.68 2.22,-10.27 -2,-9.67 -4,-4.84 m -402.7,4 a 10.2,10.2 0 0 1 -16.14,-8.29 v -68.56 a 10.16,10.16 0 0 1 5.55,-9.08 10.35,10.35 0 0 1 10.59,0.79 l 47.82,34.3 a 10.21,10.21 0 0 1 0,16.57 z m -344.77,-140.56 c 42.28,1.25 76.65,0.75 96.21,-2.77 31.9,-5.75 44.66,-27.33 49.06,-49 3.4,-16.74 -0.32,-40.7 -23,-62.43 a 2.21,2.21 0 0 0 -2,-0.58 l -0.25,0.07 a 2.21,2.21 0 0 0 -1.34,1.27 c -0.13,0.31 -12.52,20.45 -49.66,32 a 91.23,91.23 0 0 1 -15.34,3.52 c -22,2.85 -38.55,2.1 -68.26,3.23 -33.000001,1.27 -64.220001,2.45 -77.840001,5.91 -3,0.75 -5.71,1.54 -8.37,2.44 -18.6,6.26 -30.6199996,16.43 -35.7299996,30.23 -6.59,17.88 -1.08,38.73 15.9899996,67.47 a 2.23,2.23 0 0 0 2,1.08 2.34,2.34 0 0 0 0.64,-0.12 2.21,2.21 0 0 0 1.25,-1.08 c 8.34,-16.15 15.71,-20.17 30.84,-25.27 a 156.33,156.33 0 0 1 21.36,-5.19 c 12.61,-2.32 36.640001,-1.61 64.480001,-0.81"
     id="path19"
     style="fill:#ffffff" />
  <path
     d="m 158.67283,274.51 c -33.31,-21.45 -24.89,-61.72 -14.23,-87.53 10.86,-26.28 11.64,-26.78 19.75,-43.19 3.86,-7.81 6.16,-19.19 -7,-20 -7.64,-0.47 -35.3,-0.9 -51.94,-1 -4.32,0 -37.470001,67.45 -45.130001,99.27 -5,20.86 -3.18,55.28 23.76,69.85 28.710001,15.51 65.110001,1.62 77.430001,-15.43 1.12,-1.56 -0.13,-0.32 -2.67,-2 m 492.18,44.63 c -59.3,2.26 -114.76,9.57 -185.05,19.18 -57.94,7.93 -153.35,22.77 -190.4,24.54 -20.45,1 -55.17,-2.71 -72.38,-19.38 a 2.38,2.38 0 0 0 -1.72,-0.69 2.27,2.27 0 0 0 -1.14,0.33 2.9,2.9 0 0 0 -1.3,2.85 c 4.48,35.9 43.19,64.32 98.32,57.55 42.1,-5.17 185.94,-25.52 202,-27.17 l 6,-0.61 c 32.71,-3.36 73.43,-7.55 115.2,-8.52 36.12,-0.84 66.54,0.84 93,5.15 35.58,5.78 50.7,16.86 59.38,25.13 9.19,8.79 10.22,16.28 10.23,16.36 a 2.8,2.8 0 0 0 1.64,2.27 2.18,2.18 0 0 0 0.94,0.17 2.33,2.33 0 0 0 1.62,-0.69 c 0.65,-0.66 24,-25.64 8.71,-57.5 -14.11,-29.41 -57.15,-42.29 -145.06,-39"
     id="path21"
     style="display:inline;fill:#ffffff" />
  <g
     clip-path="url(#b)"
     id="g25"
     style="display:inline;fill:#ffffff"
     transform="translate(-12.377171,-25.16)">
    <path
       fill="url(#a)"
       d="m 761.27,145.83 316.81,-269.78 268.69,315.52 -316.82,269.78 z"
       id="path23"
       style="display:inline;fill:#ffffff" />
  </g>
  <g
     clip-path="url(#c)"
     id="g29"
     style="display:inline;fill:#7272ff;fill-opacity:1"
     transform="translate(-12.377171,-25.16)">
    <path
       fill="#ffffff"
       d="m 1114.61,223.13 h 0.16 a 19.1,19.1 0 0 0 10.33,-34.33 19.1,19.1 0 0 0 -7.18,-36 19,19 0 0 0 -17.76,-28.46 l -38.8,-1 c 1.38,-11.48 5.6,-27.34 -2.54,-45.82 -7.52,-17.12 -25.45,-14.1 -25.23,-9.22 0.22,4.88 1.76,12.36 0,23.81 -2.45,15.71 -9.16,24.7 -19.61,36.62 -11.6,12.27 -25.98,26.27 -23.38,59.7 3.42,43 33.32,59.29 57,59.12 l 52.71,-0.41 a 17.08,17.08 0 0 0 15.78,-18.09 16.87,16.87 0 0 0 -1.49,-5.92"
       id="path27"
       style="display:inline;fill:#7272ff;fill-opacity:1" />
  </g>
  <g
     clip-path="url(#d)"
     id="g33"
     transform="translate(-12.377171,-25.16)"
     style="fill:#ffffff">
    <path
       id="path31"
       style="fill:#ffffff"
       d="m 995.09829,172.98998 c 26.12581,-20.64776 52.25171,-41.29552 78.37751,-61.94329 21.2968,26.94703 42.5935,53.89404 63.8903,80.84106 -26.1259,20.64777 -52.2517,41.29553 -78.3776,61.94329 -21.2967,-26.94702 -42.5935,-53.89404 -63.89021,-80.84106 z" />
  </g>
</svg>
